<svg height="24.41" width="25.492" xmlns="http://www.w3.org/2000/svg"><path d="M23.878 3.034C22.435 1.134 20.082 0 17.582 0c-1.813 0-3.537.653-4.832 1.763C11.452.653 9.722 0 7.898 0 5.403 0 3.053 1.133 1.611 3.029.426 4.588-.717 7.412.562 12.018l.01.037.012.036c1.047 3.228 3.287 6.253 6.655 8.993.041.033 4.239 3.325 5.513 3.325 1.273 0 5.466-3.292 5.507-3.325 3.365-2.74 5.602-5.766 6.648-8.993l.012-.036.011-.037c1.278-4.601.134-7.426-1.052-8.984zm-.664 8.508c-2.266 6.981-10.458 11.087-10.462 11.087S4.544 18.523 2.278 11.542C.294 4.398 4.65 1.781 7.898 1.781c2.079 0 3.98 1.089 4.854 2.784.873-1.695 2.751-2.784 4.83-2.784 3.248 0 7.617 2.617 5.632 9.761z"/></svg>